<?xml version="1.0" standalone="no"?>
<!DOCTYPE svg PUBLIC "-//W3C//DTD SVG 20010904//EN"
 "http://www.w3.org/TR/2001/REC-SVG-20010904/DTD/svg10.dtd">
<svg version="1.0" xmlns="http://www.w3.org/2000/svg"
 width="60.000000pt" height="60.000000pt" viewBox="0 0 60.000000 60.000000"
 preserveAspectRatio="xMidYMid meet">
<metadata>
Created by potrace 1.13, written by Peter Selinger 2001-2015
</metadata>
<g transform="translate(0.000000,60.000000) scale(0.100000,-0.100000)"
fill="#000000" stroke="none">
<path d="M25 575 l-25 -24 0 -251 0 -251 25 -24 24 -25 251 0 251 0 24 25 25
24 0 251 0 251 -25 24 -24 25 -251 0 -251 0 -24 -25z m375 -129 c0 -32 -3 -35
-32 -38 -27 -2 -34 -8 -36 -30 -3 -24 1 -27 30 -30 30 -3 33 -6 33 -38 0 -32
-3 -35 -32 -38 l-33 -3 0 -75 0 -74 -40 0 -40 0 0 75 c0 73 -1 75 -25 75 -22
0 -25 4 -25 40 0 36 3 40 25 40 21 0 25 5 25 31 0 65 35 98 103 99 l47 0 0
-34z"/>
</g>
</svg>
